<?xml version="1.0" encoding="UTF-8"?>
<!DOCTYPE svg PUBLIC "-//W3C//DTD SVG 1.1//EN" "http://www.w3.org/Graphics/SVG/1.1/DTD/svg11.dtd">
<!-- Creator: CorelDRAW X7 -->
<svg xmlns="http://www.w3.org/2000/svg" xml:space="preserve" width="1024px" height="768px" version="1.1" style="shape-rendering:geometricPrecision; text-rendering:geometricPrecision; image-rendering:optimizeQuality; fill-rule:evenodd; clip-rule:evenodd"
viewBox="0 0 1024 768"
 xmlns:xlink="http://www.w3.org/1999/xlink">
 <defs>
  <style type="text/css">
   <![CDATA[
    .str0 {stroke:black;stroke-width:0.755906}
    .fil1 {fill:#ED1846}
    .fil0 {fill:black;fill-rule:nonzero}
   ]]>
  </style>
 </defs>
 <g id="Слой_x0020_1">
  <metadata id="CorelCorpID_0Corel-Layer"/>
  <path class="fil0" d="M42 502l0 -287 35 -6 0 100c7,-2 14,-4 21,-6 7,-1 15,-2 22,-2 16,0 29,2 39,7 10,4 19,10 25,18 6,8 10,18 13,29 2,11 4,23 4,37l0 110 -35 0 0 -103c0,-12 -1,-22 -3,-31 -2,-8 -4,-15 -8,-21 -4,-5 -9,-9 -15,-11 -6,-3 -14,-4 -24,-4 -3,0 -7,1 -11,1 -4,1 -8,1 -12,2 -4,0 -7,1 -10,2 -3,1 -5,1 -6,2l0 163 -35 0z"/>
  <path id="1" class="fil0" d="M414 496c-8,2 -18,5 -32,7 -13,2 -28,3 -46,3 -15,0 -27,-2 -38,-6 -10,-5 -18,-11 -25,-19 -6,-8 -11,-18 -13,-29 -3,-11 -4,-23 -4,-36l0 -111 35 0 0 103c0,24 3,41 11,52 8,10 20,15 38,15 4,0 8,0 12,0 4,0 8,-1 11,-1 4,-1 7,-1 10,-1 3,-1 5,-1 6,-2l0 -166 35 0 0 191z"/>
  <path id="2" class="fil0" d="M521 477c14,0 25,-2 32,-6 6,-4 10,-10 10,-18 0,-9 -3,-15 -10,-21 -7,-5 -18,-10 -34,-17 -7,-3 -15,-6 -22,-9 -7,-3 -13,-7 -18,-11 -5,-4 -9,-9 -12,-15 -3,-7 -4,-14 -4,-23 0,-17 6,-31 19,-41 13,-10 30,-16 53,-16 5,0 11,1 16,1 6,1 11,2 16,3 5,1 9,2 12,3 4,1 7,1 9,2l-7 30c-3,-2 -9,-4 -17,-6 -8,-2 -18,-3 -29,-3 -10,0 -19,2 -26,6 -7,4 -11,10 -11,18 0,4 1,8 2,12 2,3 5,6 8,8 3,3 8,6 13,8 5,2 11,4 18,7 9,4 17,7 25,10 7,4 13,8 18,12 6,5 10,10 12,17 3,6 4,14 4,23 0,19 -6,32 -20,42 -13,9 -32,14 -57,14 -18,0 -31,-2 -41,-5 -10,-3 -17,-5 -20,-6l6 -31c4,2 11,4 19,7 9,3 21,5 36,5z"/>
  <path id="3" class="fil0" d="M689 477c15,0 25,-2 32,-6 7,-4 11,-10 11,-18 0,-9 -4,-15 -11,-21 -6,-5 -18,-10 -33,-17 -8,-3 -15,-6 -22,-9 -7,-3 -13,-7 -18,-11 -5,-4 -9,-9 -12,-15 -3,-7 -5,-14 -5,-23 0,-17 7,-31 20,-41 13,-10 30,-16 52,-16 6,0 11,1 17,1 5,1 11,2 15,3 5,1 9,2 13,3 4,1 7,1 9,2l-7 30c-4,-2 -10,-4 -18,-6 -8,-2 -17,-3 -29,-3 -10,0 -18,2 -25,6 -8,4 -11,10 -11,18 0,4 0,8 2,12 2,3 4,6 8,8 3,3 7,6 12,8 5,2 11,4 18,7 10,4 18,7 25,10 8,4 14,8 19,12 5,5 9,10 12,17 3,6 4,14 4,23 0,19 -7,32 -20,42 -14,9 -33,14 -58,14 -17,0 -31,-2 -41,-5 -9,-3 -16,-5 -20,-6l7 -31c4,2 10,4 19,7 9,3 21,5 35,5z"/>
  <rect class="fil1 str0" x="794" y="90" width="71.4762" height="70.266"/>
  <rect class="fil1 str0" x="930" y="90" width="71.4762" height="70.266"/>
  <rect class="fil1 str0" x="792" y="229" width="71.4762" height="70.266"/>
  <rect class="fil1 str0" x="930" y="229" width="71.4762" height="70.266"/>
  <path class="fil0" d="M41 615c3,-5 7,-8 12,-8 4,0 8,3 11,9l0 -26 7 0 0 26c1,-3 3,-5 5,-6 2,-2 4,-3 6,-3 5,0 9,3 11,8 3,4 5,11 5,19 0,8 -2,14 -5,19 -2,5 -6,7 -11,7 -2,0 -4,-1 -6,-2 -2,-2 -4,-4 -5,-6l0 26 -7 0 0 -26c-1,2 -3,4 -5,6 -2,1 -4,2 -6,2 -5,0 -9,-2 -12,-7 -2,-5 -4,-11 -4,-19 0,-8 2,-15 4,-19zm14 -1c-4,0 -6,2 -8,5 -1,4 -2,9 -2,15 0,5 1,10 3,14 1,3 4,5 7,5 2,0 3,0 5,-2 2,-2 3,-4 4,-6l0 -23c-1,-2 -2,-4 -4,-6 -2,-1 -3,-2 -5,-2zm25 39c3,0 6,-2 7,-5 2,-4 3,-9 3,-14 0,-6 -1,-11 -3,-15 -1,-3 -4,-5 -7,-5 -2,0 -3,1 -5,2 -2,2 -3,4 -4,6l0 23c1,2 2,4 4,6 2,2 3,2 5,2z"/>
  <path id="1" class="fil0" d="M143 659l-8 0 0 -6c-3,5 -7,7 -13,7 -4,0 -8,-2 -11,-5 -3,-3 -4,-7 -4,-12 0,-5 1,-9 4,-12 3,-3 7,-4 11,-4 6,0 10,2 13,6l0 -9c0,-3 -1,-6 -2,-7 -2,-2 -5,-3 -8,-3 -5,0 -9,2 -13,6l-3 -5c5,-5 10,-8 17,-8 5,0 9,2 12,4 3,3 5,7 5,13l0 35zm-19 -4c5,0 9,-3 11,-7l0 -9c-2,-5 -6,-7 -11,-7 -3,0 -5,1 -7,3 -2,3 -2,5 -2,8 0,4 0,6 2,8 2,3 4,4 7,4z"/>
  <polygon id="2" class="fil0" points="201,659 194,659 194,621 180,659 177,659 164,621 164,659 156,659 156,609 166,609 179,644 191,609 201,609 "/>
  <polygon id="3" class="fil0" points="222,659 215,659 215,609 222,609 222,645 241,609 249,609 249,659 242,659 242,621 "/>
  <path id="4" class="fil0" d="M258 660l0 -6c2,0 4,-2 5,-5 2,-2 3,-7 3,-14l3 -26 28 0 0 50 -7 0 0 -44 -14 0 -2 20c-1,9 -3,16 -5,19 -3,4 -7,6 -11,6z"/>
  <path id="5" class="fil0" d="M311 609l7 0 0 19 13 0c5,0 9,2 11,5 3,2 4,6 4,10 0,5 -1,8 -4,11 -2,3 -6,5 -11,5l-20 0 0 -50zm19 26l-12 0 0 17 12 0c3,0 5,0 6,-2 2,-2 3,-4 3,-7 0,-2 -1,-4 -3,-6 -1,-2 -3,-2 -6,-2z"/>
  <polygon id="6" class="fil0" points="364,659 357,659 357,609 364,609 364,629 384,629 384,609 391,609 391,659 384,659 384,636 364,636 "/>
  <path id="7" class="fil0" d="M438 659l-7 0 0 -6c-3,5 -8,7 -13,7 -5,0 -8,-2 -11,-5 -3,-3 -5,-7 -5,-12 0,-5 2,-9 5,-12 3,-3 6,-4 11,-4 5,0 10,2 13,6l0 -9c0,-3 -1,-6 -3,-7 -2,-2 -4,-3 -7,-3 -5,0 -9,2 -13,6l-3 -5c4,-5 10,-8 17,-8 5,0 9,2 12,4 3,3 4,7 4,13l0 35zm-18 -4c5,0 8,-3 11,-7l0 -9c-3,-5 -6,-7 -11,-7 -3,0 -5,1 -7,3 -2,3 -3,5 -3,8 0,4 1,6 3,8 2,3 4,4 7,4z"/>
  <path id="8" class="fil0" d="M459 659l-9 0 11 -21c-3,0 -5,-2 -7,-4 -2,-3 -3,-6 -3,-10 0,-5 1,-8 4,-11 3,-3 6,-4 11,-4l20 0 0 50 -7 0 0 -20 -10 0 -10 20zm8 -26l12 0 0 -18 -12 0c-3,0 -5,1 -6,2 -2,2 -3,4 -3,7 0,3 1,5 3,6 1,2 3,3 6,3z"/>
  <polygon id="9" class="fil0" points="537,659 529,659 529,615 518,615 518,609 548,609 548,615 537,615 "/>
  <polygon id="10" class="fil0" points="565,659 558,659 558,609 565,609 565,645 584,609 592,609 592,659 585,659 585,621 "/>
  <polygon id="11" class="fil0" points="640,659 633,659 633,615 613,615 613,659 606,659 606,609 640,609 "/>
  <path id="12" class="fil0" d="M672 660c-6,0 -11,-3 -15,-8 -4,-5 -5,-11 -5,-18 0,-8 1,-14 5,-19 4,-5 9,-8 15,-8 6,0 11,3 15,8 4,5 5,11 5,19 0,7 -1,13 -5,18 -4,5 -9,8 -15,8zm0 -7c4,0 7,-2 9,-5 2,-4 4,-9 4,-14 0,-6 -2,-10 -4,-14 -2,-4 -5,-6 -9,-6 -4,0 -7,2 -9,6 -3,4 -4,8 -4,14 0,5 1,10 4,14 2,3 5,5 9,5z"/>
  <polygon id="13" class="fil0" points="732,609 732,615 711,615 711,659 704,659 704,609 "/>
  <path id="14" class="fil0" d="M775 653c-3,5 -8,7 -13,7 -6,0 -10,-3 -13,-9l0 27 -8 0 0 -69 8 0 0 7c1,-3 3,-5 5,-6 3,-2 5,-3 8,-3 5,0 10,3 13,8 3,4 5,11 5,19 0,8 -2,14 -5,19zm-15 0c4,0 7,-2 9,-5 2,-4 3,-9 3,-14 0,-6 -1,-11 -3,-15 -2,-3 -5,-5 -9,-5 -2,0 -4,1 -7,2 -2,2 -3,4 -4,6l0 23c1,2 2,4 4,6 3,2 5,2 7,2z"/>
  <path id="15" class="fil0" d="M824 659l-7 0 0 -6c-3,5 -8,7 -13,7 -5,0 -8,-2 -11,-5 -3,-3 -5,-7 -5,-12 0,-5 2,-9 5,-12 3,-3 6,-4 11,-4 5,0 10,2 13,6l0 -9c0,-3 -1,-6 -3,-7 -2,-2 -4,-3 -8,-3 -4,0 -9,2 -12,6l-3 -5c4,-5 10,-8 17,-8 5,0 9,2 12,4 3,3 4,7 4,13l0 35zm-18 -4c5,0 8,-3 11,-7l0 -9c-3,-5 -6,-7 -11,-7 -3,0 -6,1 -7,3 -2,3 -3,5 -3,8 0,4 1,6 3,8 1,3 4,4 7,4z"/>
  <path id="16" class="fil0" d="M840 615c3,-5 7,-8 11,-8 5,0 9,3 11,9l0 -26 8 0 0 26c1,-3 3,-5 5,-6 2,-2 4,-3 6,-3 5,0 8,3 11,8 3,4 4,11 4,19 0,8 -1,14 -4,19 -3,5 -6,7 -11,7 -2,0 -4,-1 -6,-2 -2,-2 -4,-4 -5,-6l0 26 -8 0 0 -26c-1,2 -2,4 -4,6 -2,1 -4,2 -7,2 -4,0 -8,-2 -11,-7 -3,-5 -4,-11 -4,-19 0,-8 1,-15 4,-19zm13 -1c-3,0 -5,2 -7,5 -2,4 -2,9 -2,15 0,5 1,10 2,14 2,3 4,5 7,5 2,0 4,0 6,-2 1,-2 3,-4 3,-6l0 -23c0,-2 -2,-4 -3,-6 -2,-1 -4,-2 -6,-2zm26 39c3,0 5,-2 7,-5 2,-4 3,-9 3,-14 0,-6 -1,-11 -3,-15 -1,-3 -4,-5 -7,-5 -2,0 -4,1 -5,2 -2,2 -3,4 -4,6l0 23c1,2 2,4 4,6 1,2 3,2 5,2z"/>
  <polygon id="17" class="fil0" points="916,659 908,659 908,609 916,609 916,645 935,609 943,609 943,659 935,659 935,621 "/>
  <path id="18" class="fil0" d="M963 659l-8 0 11 -21c-3,0 -6,-2 -8,-4 -2,-3 -3,-6 -3,-10 0,-5 2,-8 4,-11 3,-3 7,-4 12,-4l20 0 0 50 -8 0 0 -20 -10 0 -10 20zm9 -26l11 0 0 -18 -11 0c-3,0 -5,1 -7,2 -1,2 -2,4 -2,7 0,3 1,5 2,6 2,2 4,3 7,3z"/>
 </g>
</svg>
