<?xml version="1.0" encoding="UTF-8"?>
<!DOCTYPE svg PUBLIC "-//W3C//DTD SVG 1.1//EN" "http://www.w3.org/Graphics/SVG/1.1/DTD/svg11.dtd">
<!-- Creator: CorelDRAW X7 -->
<svg xmlns="http://www.w3.org/2000/svg" xml:space="preserve" width="2224px" height="400px" version="1.1" style="shape-rendering:geometricPrecision; text-rendering:geometricPrecision; image-rendering:optimizeQuality; fill-rule:evenodd; clip-rule:evenodd"
viewBox="0 0 2224 400"
 xmlns:xlink="http://www.w3.org/1999/xlink">
 <defs>
  <style type="text/css">
   <![CDATA[
    .fil1 {fill:#1A1919}
    .fil0 {fill:#5EB04C}
    .fil2 {fill:#737373}
   ]]>
  </style>
 </defs>
 <g id="Слой_x0020_1">
  <metadata id="CorelCorpID_0Corel-Layer"/>
  <g id="_431402995936">
   <path class="fil0" d="M76 86l188 0 0 189 -25 0 0 -2 -1 0 0 -7 -1 0 0 -6 -1 0 0 -5 -1 0 0 -5 -1 0 0 -4 -1 0 0 -4 -1 0 0 -4 -1 0 0 -3 -1 0 0 -3 -1 0 0 -3 -1 0 0 -3 -1 0 0 -3 -1 0 0 -2 -1 0 0 -3 -1 0 0 -2 -1 0 0 -3 -1 0 0 -2 -1 0 0 -2 -1 0 0 -2 -1 0 0 -2 -1 0 0 -2 -1 0 0 -2 -1 0 0 -2 -1 0 0 -2 -1 0 0 -1 -1 0 0 -2 -1 0 0 -2 -1 0 0 -1 -1 0 0 -2 -1 0 0 -1 -1 0 0 -2 -1 0 0 -1 -1 0 0 -2 -1 0 0 -1 -1 0 0 -2 -1 0 0 -1 -1 0 0 -1 -1 0 0 -2 -1 0 0 -1 -1 0 0 -1 -1 0 0 -1 -1 0 0 -1 -1 0 0 -2 -1 0 0 -1 -1 0 0 -1 -1 0 0 -1 -1 0 0 -1 -1 0 0 -1 -1 0 0 -1 -1 0 0 -1 -1 0 0 -1 -1 0 0 0 -1 0 0 -2 -1 0 0 -1 -1 0 0 -1 -1 0 0 -1 -1 0 0 -1 -1 0 0 0 -1 0 0 -2 -2 0 0 -1 -1 0 0 -1 -1 0 0 -1 -1 0 0 -1 -2 0 0 0 -1 0 0 -2 -1 0 0 -1 -1 0 0 -1 -2 0 0 -1 -1 0 0 -1 -2 0 0 0 -1 0 0 -2 -2 0 0 -1 -1 0 0 -1 -2 0 0 -1 -1 0 0 -1 -2 0 0 -1 -2 0 0 -1 -2 0 0 -1 -1 0 0 -1 -2 0 0 -1 -2 0 0 -1 -2 0 0 -1 -2 0 0 -1 -2 0 0 -1 -2 0 0 -1 -3 0 0 -1 -2 0 0 -1 -2 0 0 -1 -3 0 0 -1 -3 0 0 -1 -2 0 0 -1 -3 0 0 -1 -3 0 0 -1 -4 0 0 -1 -3 0 0 -1 -4 0 0 -1 -4 0 0 -1 -4 0 0 -1 -5 0 0 -1 -5 0 0 -1 -6 0 0 -1 -7 0 0 -26zm-67 90l46 0 0 1 12 0 0 1 8 0 0 1 6 0 0 1 4 0 0 1 5 0 0 1 3 0 0 1 4 0 0 1 3 0 0 1 3 0 0 1 2 0 0 1 3 0 0 1 2 0 0 1 2 0 0 1 2 0 0 1 2 0 0 1 2 0 0 1 2 0 0 1 2 0 0 1 1 0 0 1 2 0 0 1 2 0 0 1 1 0 0 1 1 0 0 1 2 0 0 1 1 0 0 1 1 0 0 1 2 0 0 1 1 0 0 1 1 0 0 1 1 0 0 1 1 0 0 1 1 0 0 1 1 0 0 1 1 0 0 1 1 0 0 1 1 0 0 1 1 0 0 1 1 0 0 1 1 0 0 2 1 0 0 1 1 0 0 1 1 0 0 2 1 0 0 1 1 0 0 1 1 0 0 2 1 0 0 1 1 0 0 2 1 0 0 2 1 0 0 2 1 0 0 1 1 0 0 2 1 0 0 2 1 0 0 3 1 0 0 2 1 0 0 2 1 0 0 3 1 0 0 3 1 0 0 3 1 0 0 3 1 0 0 4 1 0 0 4 1 0 0 5 1 0 0 5 1 0 0 7 1 0 0 11 1 0 0 49 157 0 0 -321 -322 0 0 156z"/>
   <path class="fil0" d="M1620 289l-1 0 0 2 -1 0 0 1 -1 0 0 2 -1 0 0 1 -1 0 0 1 -2 0 0 1 -1 0 0 1 -2 0 0 1 -2 0 0 1 -3 0 0 1 -4 0 0 1 -7 0 0 1 -58 0 0 -46 55 0 0 1 7 0 0 1 4 0 0 1 3 0 0 1 3 0 0 1 2 0 0 1 1 0 0 1 2 0 0 1 1 0 0 1 1 0 0 1 1 0 0 1 1 0 0 2 1 0 0 1 1 0 0 3 1 0 0 4 1 0 0 7 -1 0 0 4zm-139 52l124 0 0 -1 11 0 0 -1 6 0 0 -1 5 0 0 -1 5 0 0 -1 3 0 0 -1 4 0 0 -1 2 0 0 -1 3 0 0 -1 3 0 0 -1 2 0 0 -1 2 0 0 -1 2 0 0 -1 1 0 0 -1 2 0 0 -1 1 0 0 -1 2 0 0 -1 1 0 0 -1 2 0 0 -1 1 0 0 -1 1 0 0 -1 1 0 0 -1 1 0 0 -1 1 0 0 -1 1 0 0 -1 1 0 0 -2 1 0 0 -1 1 0 0 -1 1 0 0 -2 1 0 0 -1 1 0 0 -2 1 0 0 -3 1 0 0 -2 1 0 0 -3 1 0 0 -4 1 0 0 -6 1 0 0 -13 -1 0 0 -7 -1 0 0 -4 -1 0 0 -4 -1 0 0 -2 -1 0 0 -3 -1 0 0 -2 -1 0 0 -1 -1 0 0 -2 -1 0 0 -2 -1 0 0 -1 -1 0 0 -2 -1 0 0 -1 -1 0 0 -1 -1 0 0 -1 -1 0 0 -1 -1 0 0 -1 -1 0 0 -1 -1 0 0 -1 -1 0 0 -1 -1 0 0 -1 -2 0 0 -1 -1 0 0 -1 -2 0 0 -1 -1 0 0 -1 -2 0 0 -1 -1 0 0 -1 -2 0 0 -1 -2 0 0 -1 -3 0 0 -1 -2 0 0 -1 -3 0 0 -1 -3 0 0 -1 -3 0 0 -1 -4 0 0 -1 -4 0 0 -1 -5 0 0 -1 -8 0 0 -1 -15 0 0 -1 -61 0 0 -33 125 0 0 -38 -180 0 0 193z"/>
   <polygon class="fil0" points="374,341 428,341 428,186 515,186 515,340 516,340 516,341 570,341 570,148 374,148 "/>
   <path class="fil0" d="M722 284l-1 0 0 5 -1 0 0 3 -1 0 0 3 -1 0 0 2 -1 0 0 2 -1 0 0 2 -1 0 0 2 -1 0 0 1 -1 0 0 1 -1 0 0 1 -1 0 0 1 -1 0 0 1 -1 0 0 1 -1 0 0 1 -1 0 0 1 -1 0 0 1 -2 0 0 1 -1 0 0 1 -2 0 0 1 -3 0 0 1 -3 0 0 1 -6 0 0 1 -11 0 0 -1 -5 0 0 -1 -4 0 0 -1 -2 0 0 -1 -2 0 0 -1 -2 0 0 -1 -2 0 0 -1 -1 0 0 -1 -1 0 0 -1 -1 0 0 -1 -1 0 0 -1 -1 0 0 -1 -1 0 0 -1 -1 0 0 -1 -1 0 0 -2 -1 0 0 -1 -1 0 0 -2 -1 0 0 -2 -1 0 0 -3 -1 0 0 -3 -1 0 0 -3 -1 0 0 -5 -1 0 0 -25 1 0 0 -5 1 0 0 -3 1 0 0 -3 1 0 0 -2 1 0 0 -2 1 0 0 -2 1 0 0 -2 1 0 0 -1 1 0 0 -1 1 0 0 -2 1 0 0 -1 1 0 0 -1 2 0 0 -1 1 0 0 -1 1 0 0 -1 2 0 0 -1 1 0 0 -1 2 0 0 -1 3 0 0 -1 3 0 0 -1 4 0 0 -1 15 0 0 1 5 0 0 1 3 0 0 1 2 0 0 1 2 0 0 1 2 0 0 1 1 0 0 1 2 0 0 1 1 0 0 1 1 0 0 1 1 0 0 1 1 0 0 1 1 0 0 1 1 0 0 2 1 0 0 1 1 0 0 2 1 0 0 2 1 0 0 2 1 0 0 3 1 0 0 3 1 0 0 4 1 0 0 8 1 0 0 12 -1 0 0 8zm-27 -88l-10 0 0 1 -5 0 0 1 -4 0 0 1 -3 0 0 1 -3 0 0 1 -3 0 0 1 -2 0 0 1 -2 0 0 1 -2 0 0 1 -2 0 0 1 -1 0 0 1 -2 0 0 1 -1 0 0 1 -1 0 0 1 -2 0 0 1 -1 0 0 1 -1 0 0 1 -1 0 0 1 -2 0 0 1 -1 0 0 1 -1 0 0 1 -1 0 0 -16 -48 0 0 190 1 0 0 1 50 0 0 -65 1 0 0 1 1 0 0 1 1 0 0 1 1 0 0 1 1 0 0 1 1 0 0 1 2 0 0 1 1 0 0 1 2 0 0 1 2 0 0 1 1 0 0 1 2 0 0 1 3 0 0 1 2 0 0 1 3 0 0 1 3 0 0 1 3 0 0 1 5 0 0 1 6 0 0 1 21 0 0 -1 7 0 0 -1 5 0 0 -1 3 0 0 -1 4 0 0 -1 2 0 0 -1 3 0 0 -1 2 0 0 -1 2 0 0 -1 2 0 0 -1 2 0 0 -1 2 0 0 -1 1 0 0 -1 2 0 0 -1 1 0 0 -1 1 0 0 -1 2 0 0 -1 1 0 0 -1 1 0 0 -1 1 0 0 -1 1 0 0 -1 1 0 0 -1 1 0 0 -1 1 0 0 -1 1 0 0 -1 1 0 0 -1 1 0 0 -2 1 0 0 -1 1 0 0 -1 1 0 0 -2 1 0 0 -2 1 0 0 -1 1 0 0 -2 1 0 0 -2 1 0 0 -2 1 0 0 -3 1 0 0 -2 1 0 0 -3 1 0 0 -4 1 0 0 -4 1 0 0 -7 1 0 0 -23 -1 0 0 -6 -1 0 0 -5 -1 0 0 -4 -1 0 0 -3 -1 0 0 -2 -1 0 0 -3 -1 0 0 -2 -1 0 0 -2 -1 0 0 -2 -1 0 0 -2 -1 0 0 -1 -1 0 0 -2 -1 0 0 -1 -1 0 0 -1 -1 0 0 -2 -1 0 0 -1 -1 0 0 -1 -1 0 0 -1 -1 0 0 -1 -1 0 0 -1 -1 0 0 -1 -1 0 0 -1 -1 0 0 -1 -1 0 0 -1 -1 0 0 -1 -1 0 0 -1 -2 0 0 -1 -1 0 0 -1 -2 0 0 -1 -1 0 0 -1 -2 0 0 -1 -2 0 0 -1 -2 0 0 -1 -2 0 0 -1 -2 0 0 -1 -3 0 0 -1 -3 0 0 -1 -3 0 0 -1 -5 0 0 -1 -5 0 0 -1 -12 0 0 -1 -7 0 0 1z"/>
   <path class="fil0" d="M1080 305l-1 0 0 1 -1 0 0 1 -1 0 0 1 -2 0 0 1 -2 0 0 1 -2 0 0 1 -4 0 0 1 -10 0 0 1 -35 0 0 -31 41 0 0 1 6 0 0 1 3 0 0 1 2 0 0 1 2 0 0 1 1 0 0 1 1 0 0 1 1 0 0 1 1 0 0 2 1 0 0 11 -1 0 0 2zm-6 -56l-1 0 0 1 -1 0 0 1 -2 0 0 1 -1 0 0 1 -3 0 0 1 -4 0 0 1 -11 0 0 1 -28 0 0 -1 -1 0 0 -26 37 0 0 1 5 0 0 1 3 0 0 1 3 0 0 1 1 0 0 1 1 0 0 1 1 0 0 1 1 0 0 2 1 0 0 9 -1 0 0 2zm-102 92l113 0 0 -1 10 0 0 -1 6 0 0 -1 5 0 0 -1 3 0 0 -1 3 0 0 -1 2 0 0 -1 2 0 0 -1 2 0 0 -1 2 0 0 -1 1 0 0 -1 2 0 0 -1 1 0 0 -1 1 0 0 -1 1 0 0 -1 1 0 0 -2 1 0 0 -1 1 0 0 -2 1 0 0 -2 1 0 0 -2 1 0 0 -4 1 0 0 -17 -1 0 0 -4 -1 0 0 -2 -1 0 0 -2 -1 0 0 -2 -1 0 0 -2 -1 0 0 -1 -1 0 0 -1 -1 0 0 -1 -1 0 0 -1 -1 0 0 -1 -1 0 0 -1 -2 0 0 -1 -1 0 0 -1 -2 0 0 -1 -2 0 0 -1 -2 0 0 -1 -3 0 0 -1 -3 0 0 -1 -3 0 0 -1 -4 0 0 -1 -5 0 0 -1 -1 0 0 -1 5 0 0 -1 3 0 0 -1 3 0 0 -1 2 0 0 -1 3 0 0 -1 1 0 0 -1 2 0 0 -1 1 0 0 -1 2 0 0 -1 1 0 0 -1 1 0 0 -1 1 0 0 -1 1 0 0 -1 1 0 0 -1 1 0 0 -2 1 0 0 -2 1 0 0 -1 1 0 0 -3 1 0 0 -3 1 0 0 -15 -1 0 0 -4 -1 0 0 -2 -1 0 0 -2 -1 0 0 -2 -1 0 0 -1 -1 0 0 -1 -1 0 0 -1 -1 0 0 -1 -1 0 0 -1 -1 0 0 -1 -1 0 0 -1 -1 0 0 -1 -2 0 0 -1 -2 0 0 -1 -2 0 0 -1 -2 0 0 -1 -3 0 0 -1 -3 0 0 -1 -5 0 0 -1 -6 0 0 -1 -118 0 0 140z"/>
   <path class="fil0" d="M1254 293l-1 0 0 3 -1 0 0 3 -1 0 0 2 -1 0 0 1 -1 0 0 2 -1 0 0 1 -1 0 0 1 -1 0 0 1 -1 0 0 1 -1 0 0 1 -1 0 0 1 -2 0 0 1 -1 0 0 1 -2 0 0 1 -2 0 0 1 -2 0 0 1 -3 0 0 1 -3 0 0 1 -6 0 0 1 -9 0 0 -1 -6 0 0 -1 -3 0 0 -1 -2 0 0 -1 -2 0 0 -1 -2 0 0 -1 -1 0 0 -1 -1 0 0 -1 -1 0 0 -1 -1 0 0 -2 -1 0 0 -5 -1 0 0 -2 1 0 0 -4 1 0 0 -2 1 0 0 -2 1 0 0 -1 1 0 0 -1 1 0 0 -1 1 0 0 -1 2 0 0 -1 2 0 0 -1 2 0 0 -1 3 0 0 -1 3 0 0 -1 5 0 0 -1 7 0 0 -1 7 0 0 -1 7 0 0 -1 5 0 0 -1 3 0 0 -1 3 0 0 -1 3 0 0 -1 4 0 0 12 -1 0 0 6zm-32 -97l-14 0 0 1 -7 0 0 1 -6 0 0 1 -4 0 0 1 -3 0 0 1 -3 0 0 1 -3 0 0 1 -3 0 0 1 -2 0 0 1 -2 0 0 1 -2 0 0 1 -1 0 0 1 -2 0 0 1 -2 0 0 1 -1 0 0 1 -1 0 0 1 -2 0 0 1 -1 0 0 1 -1 0 0 1 -1 0 0 1 -1 0 0 1 -1 0 0 2 -1 0 0 1 -1 0 0 1 -1 0 0 2 -1 0 0 1 -1 0 0 2 -1 0 0 2 -1 0 0 3 -1 0 0 3 -1 0 0 4 -1 0 0 8 48 0 0 -6 1 0 0 -3 1 0 0 -2 1 0 0 -1 1 0 0 -2 1 0 0 -1 1 0 0 -1 2 0 0 -1 1 0 0 -1 2 0 0 -1 2 0 0 -1 3 0 0 -1 5 0 0 -1 18 0 0 1 5 0 0 1 2 0 0 1 2 0 0 1 2 0 0 1 1 0 0 1 2 0 0 1 1 0 0 2 1 0 0 2 1 0 0 2 1 0 0 13 -1 0 0 2 -1 0 0 1 -1 0 0 1 -1 0 0 1 -2 0 0 1 -3 0 0 1 -5 0 0 1 -7 0 0 1 -11 0 0 1 -10 0 0 1 -8 0 0 1 -7 0 0 1 -6 0 0 1 -5 0 0 1 -5 0 0 1 -3 0 0 1 -4 0 0 1 -3 0 0 1 -3 0 0 1 -2 0 0 1 -2 0 0 1 -2 0 0 1 -2 0 0 1 -2 0 0 1 -1 0 0 1 -2 0 0 1 -1 0 0 1 -1 0 0 1 -2 0 0 1 -1 0 0 1 -1 0 0 2 -1 0 0 1 -1 0 0 1 -1 0 0 2 -1 0 0 1 -1 0 0 3 -1 0 0 2 -1 0 0 4 -1 0 0 17 1 0 0 4 1 0 0 2 1 0 0 2 1 0 0 2 1 0 0 2 1 0 0 1 1 0 0 2 1 0 0 1 1 0 0 1 1 0 0 1 1 0 0 1 1 0 0 1 2 0 0 1 1 0 0 1 1 0 0 1 2 0 0 1 2 0 0 1 2 0 0 1 2 0 0 1 3 0 0 1 3 0 0 1 4 0 0 1 4 0 0 1 8 0 0 1 24 0 0 -1 8 0 0 -1 5 0 0 -1 4 0 0 -1 3 0 0 -1 3 0 0 -1 2 0 0 -1 3 0 0 -1 2 0 0 -1 2 0 0 -1 2 0 0 -1 1 0 0 -1 2 0 0 -1 1 0 0 -1 2 0 0 -1 1 0 0 -1 1 0 0 -1 1 0 0 -1 1 0 0 -1 2 0 0 4 1 0 0 3 1 0 0 3 1 0 0 3 1 0 0 1 53 0 0 -3 -3 0 0 -1 -2 0 0 -1 -1 0 0 -1 -1 0 0 -2 -1 0 0 -2 -1 0 0 -4 -1 0 0 -56 1 0 0 -33 -1 0 0 -6 -1 0 0 -3 -1 0 0 -3 -1 0 0 -2 -1 0 0 -2 -1 0 0 -2 -1 0 0 -1 -1 0 0 -1 -1 0 0 -2 -1 0 0 -1 -1 0 0 -1 -1 0 0 -1 -1 0 0 -1 -1 0 0 -1 -2 0 0 -1 -1 0 0 -1 -1 0 0 -1 -2 0 0 -1 -2 0 0 -1 -1 0 0 -1 -2 0 0 -1 -3 0 0 -1 -2 0 0 -1 -3 0 0 -1 -3 0 0 -1 -4 0 0 -1 -4 0 0 -1 -5 0 0 -1 -8 0 0 -1 -15 0 0 -1 -11 0 0 1z"/>
   <path class="fil0" d="M1802 295l-1 0 0 2 -1 0 0 3 -1 0 0 1 -1 0 0 2 -1 0 0 1 -1 0 0 1 -1 0 0 2 -1 0 0 1 -1 0 0 1 -2 0 0 1 -1 0 0 1 -2 0 0 1 -1 0 0 1 -2 0 0 1 -2 0 0 1 -3 0 0 1 -3 0 0 1 -6 0 0 1 -9 0 0 -1 -6 0 0 -1 -4 0 0 -1 -2 0 0 -1 -2 0 0 -1 -1 0 0 -1 -2 0 0 -1 -1 0 0 -1 -1 0 0 -2 -1 0 0 -2 -1 0 0 -9 1 0 0 -2 1 0 0 -2 1 0 0 -1 1 0 0 -2 2 0 0 -1 1 0 0 -1 1 0 0 -1 2 0 0 -1 2 0 0 -1 3 0 0 -1 4 0 0 -1 4 0 0 -1 7 0 0 -1 7 0 0 -1 7 0 0 -1 5 0 0 -1 4 0 0 -1 3 0 0 -1 3 0 0 -1 3 0 0 16 -1 0 0 4zm-31 -99l-15 0 0 1 -7 0 0 1 -5 0 0 1 -4 0 0 1 -4 0 0 1 -3 0 0 1 -3 0 0 1 -2 0 0 1 -2 0 0 1 -2 0 0 1 -2 0 0 1 -2 0 0 1 -2 0 0 1 -1 0 0 1 -2 0 0 1 -1 0 0 1 -1 0 0 1 -1 0 0 1 -1 0 0 1 -1 0 0 1 -1 0 0 1 -1 0 0 1 -1 0 0 1 -1 0 0 1 -1 0 0 2 -1 0 0 2 -1 0 0 1 -1 0 0 2 -1 0 0 3 -1 0 0 2 -1 0 0 4 -1 0 0 5 -1 0 0 5 48 0 0 -4 1 0 0 -4 1 0 0 -2 1 0 0 -2 1 0 0 -1 1 0 0 -1 1 0 0 -1 1 0 0 -1 1 0 0 -1 2 0 0 -1 2 0 0 -1 2 0 0 -1 3 0 0 -1 5 0 0 -1 18 0 0 1 4 0 0 1 3 0 0 1 2 0 0 1 2 0 0 1 1 0 0 1 1 0 0 1 1 0 0 1 1 0 0 2 1 0 0 2 1 0 0 3 1 0 0 9 -1 0 0 3 -1 0 0 2 -1 0 0 1 -2 0 0 1 -2 0 0 1 -2 0 0 1 -5 0 0 1 -8 0 0 1 -10 0 0 1 -10 0 0 1 -9 0 0 1 -7 0 0 1 -6 0 0 1 -5 0 0 1 -4 0 0 1 -4 0 0 1 -3 0 0 1 -3 0 0 1 -3 0 0 1 -3 0 0 1 -2 0 0 1 -2 0 0 1 -2 0 0 1 -1 0 0 1 -2 0 0 1 -1 0 0 1 -2 0 0 1 -1 0 0 1 -1 0 0 1 -1 0 0 1 -1 0 0 1 -1 0 0 1 -1 0 0 2 -1 0 0 1 -1 0 0 2 -1 0 0 2 -1 0 0 2 -1 0 0 3 -1 0 0 5 -1 0 0 11 1 0 0 5 1 0 0 3 1 0 0 2 1 0 0 2 1 0 0 2 1 0 0 2 1 0 0 1 1 0 0 1 1 0 0 1 1 0 0 1 1 0 0 1 1 0 0 1 1 0 0 1 1 0 0 1 1 0 0 1 2 0 0 1 2 0 0 1 1 0 0 1 2 0 0 1 3 0 0 1 2 0 0 1 3 0 0 1 4 0 0 1 5 0 0 1 7 0 0 1 25 0 0 -1 7 0 0 -1 5 0 0 -1 4 0 0 -1 3 0 0 -1 3 0 0 -1 3 0 0 -1 2 0 0 -1 2 0 0 -1 2 0 0 -1 2 0 0 -1 2 0 0 -1 1 0 0 -1 2 0 0 -1 1 0 0 -1 1 0 0 -1 1 0 0 -1 2 0 0 -1 1 0 0 -1 1 0 0 2 1 0 0 3 1 0 0 4 1 0 0 3 1 0 0 2 53 0 0 -3 -2 0 0 -1 -2 0 0 -1 -1 0 0 -1 -1 0 0 -1 -1 0 0 -2 -1 0 0 -2 -1 0 0 -7 -1 0 0 -19 1 0 0 -69 -1 0 0 -4 -1 0 0 -3 -1 0 0 -3 -1 0 0 -2 -1 0 0 -2 -1 0 0 -1 -1 0 0 -2 -1 0 0 -1 -1 0 0 -1 -1 0 0 -1 -1 0 0 -1 -1 0 0 -1 -1 0 0 -1 -1 0 0 -1 -1 0 0 -1 -1 0 0 -1 -2 0 0 -1 -1 0 0 -1 -2 0 0 -1 -2 0 0 -1 -2 0 0 -1 -2 0 0 -1 -3 0 0 -1 -2 0 0 -1 -3 0 0 -1 -4 0 0 -1 -4 0 0 -1 -6 0 0 -1 -7 0 0 -1 -16 0 0 -1 -10 0 0 1z"/>
   <polygon class="fil0" points="1875,341 1925,341 1925,282 1985,282 1985,341 2036,341 2036,201 1985,201 1985,253 1925,253 1925,201 1875,201 "/>
   <polygon class="fil1" points="134,341 134,216 8,216 8,341 "/>
   <polygon class="fil0" points="787,297 788,297 788,305 789,305 789,310 790,310 790,313 791,313 791,316 792,316 792,319 793,319 793,321 794,321 794,323 795,323 795,324 796,324 796,326 797,326 797,327 798,327 798,329 799,329 799,330 800,330 800,331 801,331 801,332 802,332 802,333 803,333 803,334 804,334 804,335 806,335 806,336 807,336 807,337 808,337 808,338 810,338 810,339 812,339 812,340 814,340 814,341 816,341 816,342 819,342 819,343 822,343 822,344 826,344 826,345 833,345 833,346 855,346 855,345 862,345 862,344 866,344 866,343 869,343 869,342 872,342 872,341 875,341 875,340 877,340 877,339 879,339 879,338 881,338 881,337 883,337 883,336 885,336 885,335 886,335 886,334 888,334 888,333 889,333 889,332 891,332 891,331 892,331 892,330 893,330 893,329 895,329 895,328 896,328 896,327 897,327 897,326 898,326 898,325 900,325 900,341 950,341 950,201 900,201 900,283 899,283 899,291 898,291 898,295 897,295 897,298 896,298 896,300 895,300 895,302 894,302 894,304 893,304 893,306 892,306 892,307 891,307 891,308 890,308 890,309 889,309 889,310 888,310 888,311 887,311 887,312 885,312 885,313 884,313 884,314 882,314 882,315 880,315 880,316 876,316 876,317 871,317 871,318 861,318 861,317 855,317 855,316 852,316 852,315 850,315 850,314 848,314 848,313 847,313 847,312 846,312 846,311 845,311 845,310 844,310 844,309 843,309 843,307 842,307 842,305 841,305 841,303 840,303 840,299 839,299 839,294 838,294 838,201 787,201 "/>
   <polygon class="fil0" points="2057,340 2058,340 2058,341 2108,341 2108,280 2109,280 2109,281 2110,281 2110,282 2111,282 2111,283 2112,283 2112,284 2113,284 2113,285 2114,285 2114,286 2115,286 2115,287 2116,287 2116,288 2117,288 2117,290 2118,290 2118,291 2119,291 2119,292 2120,292 2120,293 2121,293 2121,294 2122,294 2122,295 2123,295 2123,296 2124,296 2124,297 2125,297 2125,299 2126,299 2126,300 2127,300 2127,301 2128,301 2128,302 2129,302 2129,303 2130,303 2130,304 2131,304 2131,305 2132,305 2132,306 2133,306 2133,308 2134,308 2134,309 2135,309 2135,310 2136,310 2136,311 2137,311 2137,312 2138,312 2138,313 2139,313 2139,314 2140,314 2140,316 2141,316 2141,317 2142,317 2142,318 2143,318 2143,319 2144,319 2144,320 2145,320 2145,321 2146,321 2146,322 2147,322 2147,323 2148,323 2148,325 2149,325 2149,326 2150,326 2150,327 2151,327 2151,328 2152,328 2152,329 2153,329 2153,330 2154,330 2154,331 2155,331 2155,332 2156,332 2156,334 2157,334 2157,335 2158,335 2158,336 2159,336 2159,337 2160,337 2160,338 2161,338 2161,339 2162,339 2162,340 2163,340 2163,341 2222,341 2222,340 2221,340 2221,339 2220,339 2220,338 2219,338 2219,337 2218,337 2218,336 2217,336 2217,335 2216,335 2216,334 2215,334 2215,333 2214,333 2214,332 2213,332 2213,331 2212,331 2212,330 2211,330 2211,329 2210,329 2210,328 2209,328 2209,327 2208,327 2208,326 2207,326 2207,325 2206,325 2206,324 2205,324 2205,323 2204,323 2204,322 2203,322 2203,321 2202,321 2202,320 2201,320 2201,319 2200,319 2200,318 2199,318 2199,317 2198,317 2198,316 2197,316 2197,315 2196,315 2196,314 2195,314 2195,312 2194,312 2194,311 2193,311 2193,310 2192,310 2192,309 2191,309 2191,308 2190,308 2190,307 2189,307 2189,306 2188,306 2188,305 2187,305 2187,304 2186,304 2186,303 2185,303 2185,302 2184,302 2184,301 2183,301 2183,300 2182,300 2182,299 2181,299 2181,298 2180,298 2180,297 2179,297 2179,296 2178,296 2178,295 2177,295 2177,294 2176,294 2176,293 2175,293 2175,292 2174,292 2174,291 2173,291 2173,290 2172,290 2172,289 2171,289 2171,288 2170,288 2170,287 2169,287 2169,286 2168,286 2168,285 2167,285 2167,284 2166,284 2166,283 2165,283 2165,282 2164,282 2164,281 2163,281 2163,280 2162,280 2162,279 2161,279 2161,278 2160,278 2160,277 2159,277 2159,276 2158,276 2158,274 2157,274 2157,273 2156,273 2156,272 2155,272 2155,271 2154,271 2154,270 2153,270 2153,269 2152,269 2152,268 2151,268 2151,267 2150,267 2150,266 2151,266 2151,265 2152,265 2152,264 2153,264 2153,263 2154,263 2154,262 2155,262 2155,261 2156,261 2156,260 2157,260 2157,259 2158,259 2158,258 2159,258 2159,257 2160,257 2160,256 2161,256 2161,255 2162,255 2162,254 2163,254 2163,253 2164,253 2164,252 2165,252 2165,251 2166,251 2166,250 2167,250 2167,249 2168,249 2168,248 2169,248 2169,247 2171,247 2171,246 2172,246 2172,245 2173,245 2173,244 2174,244 2174,243 2175,243 2175,242 2176,242 2176,241 2177,241 2177,240 2178,240 2178,239 2179,239 2179,238 2180,238 2180,237 2181,237 2181,236 2182,236 2182,235 2183,235 2183,234 2184,234 2184,233 2185,233 2185,232 2186,232 2186,231 2187,231 2187,230 2188,230 2188,229 2190,229 2190,228 2191,228 2191,227 2192,227 2192,226 2193,226 2193,225 2194,225 2194,224 2195,224 2195,223 2196,223 2196,222 2197,222 2197,221 2198,221 2198,220 2199,220 2199,219 2200,219 2200,218 2201,218 2201,217 2202,217 2202,216 2203,216 2203,215 2204,215 2204,214 2205,214 2205,213 2206,213 2206,212 2207,212 2207,211 2209,211 2209,210 2210,210 2210,209 2211,209 2211,208 2212,208 2212,207 2213,207 2213,206 2214,206 2214,205 2215,205 2215,204 2216,204 2216,203 2217,203 2217,202 2218,202 2218,201 2162,201 2162,202 2161,202 2161,203 2160,203 2160,204 2159,204 2159,205 2158,205 2158,206 2157,206 2157,207 2156,207 2156,208 2155,208 2155,209 2154,209 2154,210 2153,210 2153,211 2152,211 2152,212 2151,212 2151,213 2150,213 2150,214 2149,214 2149,215 2148,215 2148,216 2147,216 2147,218 2146,218 2146,219 2145,219 2145,220 2144,220 2144,221 2143,221 2143,222 2142,222 2142,223 2141,223 2141,224 2140,224 2140,225 2139,225 2139,226 2138,226 2138,227 2137,227 2137,228 2136,228 2136,229 2135,229 2135,230 2134,230 2134,231 2133,231 2133,232 2132,232 2132,233 2131,233 2131,234 2130,234 2130,235 2129,235 2129,236 2128,236 2128,237 2127,237 2127,238 2126,238 2126,239 2125,239 2125,240 2124,240 2124,242 2123,242 2123,243 2122,243 2122,244 2121,244 2121,245 2120,245 2120,246 2119,246 2119,247 2118,247 2118,248 2117,248 2117,249 2116,249 2116,250 2115,250 2115,251 2114,251 2114,252 2113,252 2113,253 2112,253 2112,254 2111,254 2111,255 2110,255 2110,256 2109,256 2109,257 2108,257 2108,201 2057,201 "/>
   <polygon class="fil0" points="1310,229 1366,229 1366,341 1416,341 1416,229 1472,229 1472,201 1310,201 "/>
   <polygon class="fil2" points="134,341 135,341 135,215 9,215 9,216 134,216 "/>
  </g>
 </g>
</svg>
