<?xml version="1.0" encoding="utf-8"?>
<!-- Generator: Adobe Illustrator 17.1.0, SVG Export Plug-In . SVG Version: 6.00 Build 0)  -->
<!DOCTYPE svg PUBLIC "-//W3C//DTD SVG 1.1//EN" "http://www.w3.org/Graphics/SVG/1.1/DTD/svg11.dtd">
<svg version="1.1" id="Layer_1" xmlns="http://www.w3.org/2000/svg" xmlns:xlink="http://www.w3.org/1999/xlink" x="0px" y="0px"
	 viewBox="0 0 62 62" enable-background="new 0 0 62 62" xml:space="preserve">
<path fill="#804334" d="M33.6,60.7c-1.4,1.4-3.8,1.4-5.2,0L1.3,33.6c-1.4-1.4-1.4-3.8,0-5.2L28.4,1.3c1.4-1.4,3.8-1.4,5.2,0
	l27.1,27.1c1.4,1.4,1.4,3.8,0,5.2L33.6,60.7z"/>
<g>
	<polygon fill="#E44F26" points="18.4,48 15.6,16.5 46.4,16.5 43.6,48 31,51.5 	"/>
	<polygon fill="#F1662A" points="31,48.8 41.2,46 43.6,19.1 31,19.1 	"/>
	<polygon fill="#EBEBEB" points="31,30.8 25.9,30.8 25.5,26.8 31,26.8 31,22.9 31,22.9 21.3,22.9 21.4,24 22.4,34.6 31,34.6 	"/>
	<polygon fill="#EBEBEB" points="31,40.8 31,40.8 26.7,39.6 26.4,36.6 24.3,36.6 22.5,36.6 23.1,42.6 31,44.8 31,44.8 	"/>
	<polygon fill="#FFFFFF" points="31,30.8 31,34.6 35.7,34.6 35.3,39.6 31,40.8 31,44.8 38.9,42.6 39,42 39.9,31.8 40,30.8 
		38.9,30.8 	"/>
	<polygon fill="#FFFFFF" points="31,22.9 31,25.3 31,26.8 31,26.8 40.3,26.8 40.3,26.8 40.3,26.8 40.4,25.9 40.6,24 40.7,22.9 	"/>
</g>
</svg>
