<?xml version="1.0" encoding="utf-8"?>
<!-- Generator: Adobe Illustrator 17.1.0, SVG Export Plug-In . SVG Version: 6.00 Build 0)  -->
<!DOCTYPE svg PUBLIC "-//W3C//DTD SVG 1.1//EN" "http://www.w3.org/Graphics/SVG/1.1/DTD/svg11.dtd">
<svg version="1.1" id="Layer_1" xmlns="http://www.w3.org/2000/svg" xmlns:xlink="http://www.w3.org/1999/xlink" x="0px" y="0px"
	 viewBox="0 0 62 62" enable-background="new 0 0 62 62" xml:space="preserve">
<path fill="#806535" d="M33.6,60.7c-1.4,1.4-3.8,1.4-5.2,0L1.3,33.6c-1.4-1.4-1.4-3.8,0-5.2L28.4,1.3c1.4-1.4,3.8-1.4,5.2,0
	l27.1,27.1c1.4,1.4,1.4,3.8,0,5.2L33.6,60.7z"/>
<g display="none">
	<polygon display="inline" fill="#E44F26" points="18.4,48 15.6,16.5 46.4,16.5 43.6,48 31,51.5 	"/>
	<polygon display="inline" fill="#F1662A" points="31,48.8 41.2,46 43.6,19.1 31,19.1 	"/>
	<polygon display="inline" fill="#EBEBEB" points="31,30.8 25.9,30.8 25.5,26.8 31,26.8 31,22.9 31,22.9 21.3,22.9 21.4,24 
		22.4,34.6 31,34.6 	"/>
	<polygon display="inline" fill="#EBEBEB" points="31,40.8 31,40.8 26.7,39.6 26.4,36.6 24.3,36.6 22.5,36.6 23.1,42.6 31,44.8 
		31,44.8 	"/>
	<polygon display="inline" fill="#FFFFFF" points="31,30.8 31,34.6 35.7,34.6 35.3,39.6 31,40.8 31,44.8 38.9,42.6 39,42 39.9,31.8 
		40,30.8 38.9,30.8 	"/>
	<polygon display="inline" fill="#FFFFFF" points="31,22.9 31,25.3 31,26.8 31,26.8 40.3,26.8 40.3,26.8 40.3,26.8 40.4,25.9 
		40.6,24 40.7,22.9 	"/>
</g>
<polygon display="none" fill="#1572B6" points="18.4,47.9 15.6,16.5 46.3,16.5 43.5,47.9 30.9,51.4 "/>
<polygon display="none" fill="#33A9DC" points="31,48.7 41.1,45.9 43.5,19.1 31,19.1 "/>
<g display="none">
	<polygon display="inline" fill="#FFFFFF" points="31,30.4 36,30.4 36.4,26.5 31,26.5 31,22.7 31,22.7 40.6,22.7 40.5,23.7 
		39.6,34.3 31,34.3 	"/>
	<polygon display="inline" fill="#EBEBEB" points="31,40.4 31,40.4 26.7,39.3 26.4,36.2 24.3,36.2 22.5,36.2 23.1,42.3 31,44.5 
		31,44.5 	"/>
	<polygon display="inline" fill="#FFFFFF" points="35.7,34.1 35.3,39.3 31,40.4 31,44.5 38.9,42.3 38.9,41.6 39.6,34.1 	"/>
	<polygon display="inline" fill="#EBEBEB" points="31,22.7 31,25 31,26.5 31,26.5 21.7,26.5 21.7,26.5 21.7,26.5 21.6,25.6 
		21.4,23.7 21.3,22.7 	"/>
	<polygon display="inline" fill="#EBEBEB" points="31,30.4 31,32.8 31,34.3 31,34.3 26.7,34.3 26.7,34.3 26.7,34.3 26.6,33.4 
		26.5,31.5 26.4,30.4 	"/>
</g>
<polygon fill="#EFC725" points="18.4,47.8 15.6,16.5 46.3,16.5 43.5,47.8 30.9,51.3 "/>
<polygon fill="#FBDE34" points="30.9,48.6 41.1,45.8 43.4,19 30.9,19 "/>
<polygon fill="#EBEBEB" points="30.9,40.6 30.9,40.6 26.6,39.5 26.3,36.4 24.2,36.4 22.5,36.4 23,42.5 30.9,44.6 30.9,44.6 "/>
<polygon fill="#EBEBEB" points="31.4,34.5 31.4,30.7 26.7,30.7 27.2,24.6 31.4,24.5 31.4,20.5 23.8,20.5 23.5,23.3 22.6,33.5 
	22.5,34.5 23.5,34.5 "/>
<polygon fill="#FFFFFF" points="31.4,24.5 31.4,24.5 35.6,24.8 36,28.7 38,28.7 39.8,28.7 39.1,21.3 31.4,20.5 31.4,20.5 "/>
<polyline fill="#FFFFFF" points="39.4,24.5 39.1,20.5 31,20.5 31,23 31,24.5 31,24.5 39.4,24.5 "/>
<polygon fill="#FFFFFF" points="30.9,30.7 30.9,34.5 35.6,34.5 35.2,39.5 30.9,40.6 30.9,44.6 38.8,42.5 38.8,41.8 39.7,31.7 
	39.8,30.7 38.8,30.7 "/>
<path fill="#FFFFFF" d="M38.9,24.4"/>
<path fill="#FFFFFF" d="M38.9,24.4"/>
<text transform="matrix(1 0 0 1 14.6247 39.257)" display="none" fill="#8ACCFF" font-family="'Roboto-Bold'" font-size="28.2534">Ps</text>
</svg>
